# xmcd CD database file
#
# Track frame offsets:
#	150
#	19578
#	37689
#	60314
#	77126
#	87988
#	109871
#	131666
#	144070
#	159092
#	175605
#
# Disc length: 2560 seconds
#
# Revision: 0
# Processed by: cddbd v1.5.1PL0 Copyright (c) Steve Scherf et al.
# Submitted via: CDex 1.51
#
DISCID=7209fe0b
DTITLE=Enya - The Memory of Trees
DYEAR=1900
DGENRE=New Age
TTITLE0=The Memory of Trees
TTITLE1=Anywhere Is
TTITLE2=Pax Deorum
TTITLE3=Athair Ar Neamh
TTITLE4=From Where I Am
TTITLE5=China Roses
TTITLE6=Hope Has a Place
TTITLE7=Tea-House Moon
TTITLE8=Once You Had Gold
TTITLE9=La Sonadora
TTITLE10=On My Way Home
EXTD=
EXTT0=
EXTT1=
EXTT2=
EXTT3=
EXTT4=
EXTT5=
EXTT6=
EXTT7=
EXTT8=
EXTT9=
EXTT10=
PLAYORDER=
